<?xml version="1.0" encoding="UTF-8"?>
<svg version="1.1" viewBox="0 0 1600 1067" width="1920" height="1281" xmlns="http://www.w3.org/2000/svg">
<path transform="translate(0)" d="m0 0h1600v1067h-1600z" fill="#A5F2DF"/>
<path transform="translate(0)" d="m0 0h305l-3 9-3 4h-2v2l-10 2-5 3-5 2-10 8-1 3-9 2-2 4h-4v2h-8l-6 5-7 1v4l-5 2-3 4-4-1v2l-9 2-6-1-3 2h-8l-9-4-4 1-5 5h-4v2h-3v-2h-2l-1 4-5-1-9-2-9-1-1 10-1 7v13l3 28 5 30 8 35 10 34 8 21 11 26 8 15 7 14 23 34 15 22 12 17 13 18 10 14 14 19 13 17 10 13 14 18 13 16 11 14 11 13 13 16 22 26 7 8 21 21 8 7 14 12 13 10 19 14 19 13 2 3-2 3h-2v2l-5 5-7 6-10 8h-2l-1 5-1 4 16 37 15 39 10 28 16 52 10 38 9 39 8 44 5 36 3 31 1 21v28h-559z" fill="#06BECE"/>
<path transform="translate(1599,324)" d="m0 0h1v743h-457l1-3 11-9 4-5 1-3h2l2-4 26-20 5-4 7-10 3-5 3-2h4v-2l4-4 4-8 3-3 7-3 8-7h2l2-4 11-8 3-2 9-2v-2l8-6 1-3 18-8 6-2h6l3-2h26l3 3 4 1 5 5 2 4 5 2 10 5 9 6 8 4 9 3 2-1 3 4-13-22-15-24-11-16-10-13-11-13-9-10-11-12-15-15-7-6 2-5 10-7 5-3h3v-2l4-1 1-3 3-2 2-8-1-13-4-39v-48l3-30 4-26 6-27 9-30 10-25 16-33 12-19 8-10 9-11 14-17 12-14 9-11 13-15 12-14 13-15 10-11 7-8 11-12 13-11 16-11 15-9 9-5 4-1 8-5 20-9z" fill="#06BECE"/>
<path transform="translate(0,677)" d="m0 0h11l6 4 5 2v2l9 1 6 5 5 3v2h2l2 7 1 7 6 8 7 8 1 2 1 9 6 5 5 4 6 10 2 3 6 3 4 5 5 5 4 3 10 4 7 9v2l5 2 8 7 4 4 8 4 4 3 15-1 8 4 2 4 6 2 7 1 5 1 7 11 9 7 7 6 7 14 3 4v9l-2 7h-2l-2 4-3 5-2 24-4 9-2 8-1 11-6 15-5 18-6 19-5 14-4 10-4 14-2 2-3 17-6 18h-163z" fill="#006072"/>
<path transform="translate(0,677)" d="m0 0h11l6 4 5 2v2l9 1 6 5 5 3v2h2l2 7 1 7 6 8 7 8 1 2 1 9 6 5 5 4 6 10 2 3 6 3 4 5 5 5 4 3 10 4 7 9v2l5 2 8 7 4 4 8 4 4 3 15-1 8 4 2 4 6 2 7 1 5 1 7 11 9 7 7 6 7 14 3 4v9l-2 7h-2l-2 4-3 5-2 24-4 9-2 8-1 11-6 15-5 18-6 19-5 14-4 10-4 14-2 2-3 17-6 18h-39v-5l7-11 5-22 3-7 1-24 8-20 2-20 3-5 2-8v-7l-1-5v-32l-6-20-5-5-16-12-16-14-3-3-7-2-1-1-1-10-2-4v-3l-8-2-14-1-5-6-4-5-6-4-4-7v-2l-18-1-5-4-3-6-8-6-5-7-3-10-8-7-3-4-3-1z" fill="#00839A"/>
<path transform="translate(0,754)" d="m0 0 4 1 4 5 7 6 4 12 6 7 7 5 3 6 3 2 15 1 3 1 3 6 5 5 6 5 4 6 1 1 14 1 8 3 3 7 1 10 9 3 7 8 9 7 7 6 9 6 4 5 3 2 6 20v32l1 5v7l-3 9-2 4-2 20-8 20-1 24-4 10-4 19-7 11-1 5h-21l1-6 2-4 2-11 4-10v-13l-1-5v-12l1-2v-17l3-12 1-7v-14l-3-4v-14l-4-8-3-12-5-6-3-7-8-9-6-9-2-2-2-5-6-5v-4l-5-2-3-3-5-3-6-5-3-5-2-1-2-6-4-2v-2l-5-2-3-4-5-2-1-5-9-2-4-6-2-4-6-4-5-6-1-4-3-1z" fill="#006A7E"/>
<path transform="translate(0,707)" d="m0 0 9 3 5 5 11 6 5 11 2 8 5 7v2l4 2 5 8 12 9 11 12 6 10 4 5 10 4 5 6 13 4 6 7 2 4 10 7 5 4 4 5 10 2 9 7 11 6 6 7 10 2 6 2 3 6v11l1 7v12l-2 6-2 14-6 17v22l-5 16-3 6-3 9-2 5v7l-4 16-5 13-5 21-4 8-2 2-1 7h-22v-5l7-11 5-22 3-7 1-24 8-20 2-20 3-5 2-8v-7l-1-5v-32l-6-20-5-5-16-12-16-14-3-3-7-2-1-1-1-10-2-4v-3l-8-2-14-1-5-6-4-5-6-4-4-7v-2l-18-1-5-4-3-6-8-6-5-7-3-10-8-7-3-4-3-1z" fill="#00798E"/>
<path transform="translate(0,883)" d="m0 0 9 1 10 7 5 6 6 4 7 1 3 4 4 8 7 9 2 4 4 4 7 13 3 5 1 17 3 6 4 5-1 11 3 5 1 25-2 5-1 15-2 8-1 7-1 2v12h-71z" fill="#005260"/>
<path transform="translate(1245,681)" d="m0 0 5 1-1 8-1 1-1 9-4 11-9 10-5 4h-2l-2 4-4 2-2 4 1 8 1 6-5 6-8 7-8 5-3-5-3-9-1-7v-11l3-14 7-14 9-11 13-9 10-4z" fill="#06BECE"/>
<path transform="translate(1419,1017)" d="m0 0 3 4 7 17 9 26v3h-20l-2-10v-31l3-6z" fill="#A6F3E0"/>
</svg>
